<svg width="42" height="42" viewBox="0 0 42 42" fill="none" xmlns="http://www.w3.org/2000/svg"><path fill-rule="evenodd" clip-rule="evenodd" d="M21 0C32.598 0 42 9.40202 42 21C42 32.598 32.598 42 21 42C9.40202 42 0 32.598 0 21C0 9.40202 9.40202 0 21 0Z" fill="#0052FF"/><path fill-rule="evenodd" clip-rule="evenodd" d="M21.0002 7.07129C13.3124 7.07129 7.07153 13.3121 7.07153 21C7.07153 28.6878 13.3124 34.9287 21.0002 34.9287C28.6881 34.9287 34.9289 28.6878 34.9289 21C34.9289 13.3121 28.6881 7.07129 21.0002 7.07129ZM16.8667 16.8665C16.3442 17.389 16.0409 18.0868 16.0409 18.8629C16.0409 20.415 17.2971 21.6713 18.8493 21.6713C19.6253 21.6713 20.3231 21.368 20.8457 20.8455C21.3682 20.3229 21.6715 19.6251 21.6715 18.8491C21.6715 17.2969 20.4152 16.0407 18.8631 16.0407C18.087 16.0407 17.3892 16.344 16.8667 16.8665ZM21.1546 21.1544C20.632 21.677 20.3287 22.3747 20.3287 23.1508C20.3287 24.703 21.5849 25.9592 23.1371 25.9592C23.9132 25.9592 24.611 25.6559 25.1335 25.1334C25.6561 24.6108 25.9594 23.9131 25.9594 23.137C25.9594 21.5848 24.7031 20.3285 23.1509 20.3285C22.3748 20.3285 21.6771 20.6318 21.1546 21.1544Z" fill="#F2F2F2"/></svg>
