<svg xmlns="http://www.w3.org/2000/svg" width="32" height="32" viewBox="0 0 32 32" fill="none"><path d="M27.5821 4.27029L17.7848 10.8443L19.9097 6.89203L27.5821 4.27029Z" fill="#E17726" stroke="#E17726" stroke-width="0.25" stroke-linecap="round" stroke-linejoin="round"/><path d="M4.41162 4.27029L14.1249 10.9233L12.0903 6.89203L4.41162 4.27029Z" fill="#E27625" stroke="#E27625" stroke-width="0.25" stroke-linecap="round" stroke-linejoin="round"/><path d="M23.8596 22.2939L20.8989 26.9547L26.7561 28.7819L28.4834 22.3992L23.8596 22.2939Z" fill="#E27625" stroke="#E27625" stroke-width="0.25" stroke-linecap="round" stroke-linejoin="round"/><path d="M3.53027 22.3992L5.24385 28.7819L11.0748 26.9547L8.14036 22.2939L3.53027 22.3992Z" fill="#E27625" stroke="#E27625" stroke-width="0.25" stroke-linecap="round" stroke-linejoin="round"/><path d="M10.7061 14.6081L8.88281 17.2769L14.6662 17.5665L14.4556 11.2659L10.7061 14.6081Z" fill="#E27625" stroke="#E27625" stroke-width="0.25" stroke-linecap="round" stroke-linejoin="round"/><path d="M21.2939 14.608L17.4917 11.1868L17.3338 17.5665L23.1172 17.2769L21.2939 14.608Z" fill="#E27625" stroke="#E27625" stroke-width="0.25" stroke-linecap="round" stroke-linejoin="round"/><path d="M11.0748 26.9547L14.2974 25.1274L11.5224 22.4586L11.0748 26.9547Z" fill="#E27625" stroke="#E27625" stroke-width="0.25" stroke-linecap="round" stroke-linejoin="round"/><path d="M17.7026 25.1274L20.8989 26.9547L20.4775 22.4586L17.7026 25.1274Z" fill="#E27625" stroke="#E27625" stroke-width="0.25" stroke-linecap="round" stroke-linejoin="round"/><path d="M20.8989 26.9547L17.7026 25.1274L18.0188 27.6909L17.9925 28.6767L20.8989 26.9547Z" fill="#D5BFB2" stroke="#D5BFB2" stroke-width="0.25" stroke-linecap="round" stroke-linejoin="round"/><path d="M11.0748 26.9547L14.0075 28.6767L13.9811 27.6909L14.2974 25.1274L11.0748 26.9547Z" fill="#D5BFB2" stroke="#D5BFB2" stroke-width="0.25" stroke-linecap="round" stroke-linejoin="round"/><path d="M14.0864 20.7296L11.4167 19.7964L13.2926 18.7053L14.0864 20.7296Z" fill="#233447" stroke="#233447" stroke-width="0.25" stroke-linecap="round" stroke-linejoin="round"/><path d="M17.9136 20.7296L18.7073 18.7053L20.5833 19.7964L17.9136 20.7296Z" fill="#233447" stroke="#233447" stroke-width="0.25" stroke-linecap="round" stroke-linejoin="round"/><path d="M11.0748 26.9547L11.5487 22.2939L8.14062 22.3992L11.0748 26.9547Z" fill="#CC6228" stroke="#CC6228" stroke-width="0.25" stroke-linecap="round" stroke-linejoin="round"/><path d="M20.4512 22.2939L20.8989 26.9547L23.8596 22.3992L20.4512 22.2939Z" fill="#CC6228" stroke="#CC6228" stroke-width="0.25" stroke-linecap="round" stroke-linejoin="round"/><path d="M23.1172 17.2769L17.3338 17.5665L17.9136 20.7296L18.7074 18.7053L20.5833 19.7964L23.1172 17.2769Z" fill="#CC6228" stroke="#CC6228" stroke-width="0.25" stroke-linecap="round" stroke-linejoin="round"/><path d="M11.4167 19.7964L13.2927 18.7053L14.0864 20.7296L14.6662 17.5665L8.88281 17.2769L11.4167 19.7964Z" fill="#CC6228" stroke="#CC6228" stroke-width="0.25" stroke-linecap="round" stroke-linejoin="round"/><path d="M8.88281 17.2769L11.5225 22.4586L11.4167 19.7964L8.88281 17.2769Z" fill="#E27525" stroke="#E27525" stroke-width="0.25" stroke-linecap="round" stroke-linejoin="round"/><path d="M20.5834 19.7964L20.4775 22.4586L23.1173 17.2769L20.5834 19.7964Z" fill="#E27525" stroke="#E27525" stroke-width="0.25" stroke-linecap="round" stroke-linejoin="round"/><path d="M14.6663 17.5665L14.0865 20.7296L14.8276 24.7574L15.0118 19.692L14.6663 17.5665Z" fill="#E27525" stroke="#E27525" stroke-width="0.25" stroke-linecap="round" stroke-linejoin="round"/><path d="M17.3337 17.5665L16.9883 19.6657L17.1724 24.7574L17.9136 20.7296L17.3337 17.5665Z" fill="#E27525" stroke="#E27525" stroke-width="0.25" stroke-linecap="round" stroke-linejoin="round"/><path d="M17.9136 20.7296L17.1724 24.7574L17.7026 25.1274L20.4775 22.4586L20.5833 19.7964L17.9136 20.7296Z" fill="#F5841F" stroke="#F5841F" stroke-width="0.25" stroke-linecap="round" stroke-linejoin="round"/><path d="M11.4167 19.7964L11.5225 22.4586L14.2974 25.1274L14.8276 24.7574L14.0864 20.7296L11.4167 19.7964Z" fill="#F5841F" stroke="#F5841F" stroke-width="0.25" stroke-linecap="round" stroke-linejoin="round"/><path d="M17.9925 28.6767L18.0189 27.6909L17.7289 27.4539H14.2711L13.9811 27.6909L14.0075 28.6767L11.0748 26.9547L12.4128 28.0458L14.2185 29.2948H17.7552L19.5872 28.0458L20.8989 26.9547L17.9925 28.6767Z" fill="#C0AC9D" stroke="#C0AC9D" stroke-width="0.25" stroke-linecap="round" stroke-linejoin="round"/><path d="M17.7026 25.1274L17.1723 24.7574H14.8276L14.2974 25.1274L13.9811 27.6909L14.271 27.4539H17.7289L18.0188 27.6909L17.7026 25.1274Z" fill="#161616" stroke="#161616" stroke-width="0.25" stroke-linecap="round" stroke-linejoin="round"/><path d="M28.0045 11.371L28.9641 6.99817L27.5823 4.27029L17.7026 10.7126L21.2939 14.6081L26.6239 16.3827L27.8035 14.9747L27.2763 14.608L28.0963 13.8413L27.4632 13.3661L28.2832 12.7329L28.0045 11.371Z" fill="#763E1A" stroke="#763E1A" stroke-width="0.25" stroke-linecap="round" stroke-linejoin="round"/><path d="M3.03613 6.99817L3.99573 11.371L3.69066 12.7329L4.5106 13.3661L3.87757 13.8413L4.69751 14.608L4.17025 14.9747L5.34992 16.3827L10.7062 14.6081L14.2974 10.7126L4.4177 4.27029L3.03613 6.99817Z" fill="#763E1A" stroke="#763E1A" stroke-width="0.25" stroke-linecap="round" stroke-linejoin="round"/><path d="M26.6239 16.3827L21.2939 14.6081L23.1172 17.2769L20.4775 22.4586L23.8596 22.3992H28.4835L26.6239 16.3827Z" fill="#F5841F" stroke="#F5841F" stroke-width="0.25" stroke-linecap="round" stroke-linejoin="round"/><path d="M10.7061 14.6081L5.34987 16.3827L3.53027 22.3992H8.14036L11.5224 22.4586L8.88281 17.2769L10.7061 14.6081Z" fill="#F5841F" stroke="#F5841F" stroke-width="0.25" stroke-linecap="round" stroke-linejoin="round"/><path d="M17.3338 17.5665L17.7026 10.7126L19.9098 6.89203H12.0903L14.2974 10.7126L14.6662 17.5665L14.8012 19.692L14.8276 24.7574H17.1724L17.1987 19.692L17.3338 17.5665Z" fill="#F5841F" stroke="#F5841F" stroke-width="0.25" stroke-linecap="round" stroke-linejoin="round"/></svg>
