<svg width="150" height="150" viewBox="0 0 150 150" fill="none" xmlns="http://www.w3.org/2000/svg"><path d="M75 0C33.5786 0 0 33.5786 0 75C0 116.421 33.5786 150 75 150C116.421 150 150 116.421 150 75C150 33.5786 116.421 0 75 0Z" fill="url(#paint0_linear)"/><path fill-rule="evenodd" clip-rule="evenodd" d="M75 13.6367C40.9242 13.6367 13.6367 40.9242 13.6367 75C13.6367 109.076 40.9242 136.363 75 136.363C109.076 136.363 136.363 109.076 136.363 75C136.363 40.9242 109.076 13.6367 75 13.6367ZM57.6649 51.6327C57.6649 50.5183 58.5676 49.6157 59.682 49.6157H90.318C91.4324 49.6157 92.3351 50.5183 92.3351 51.6327V98.3673C92.3351 99.4817 91.4324 100.384 90.318 100.384H59.682C58.5676 100.384 57.6649 99.4817 57.6649 98.3673V51.6327Z" fill="white"/><defs><linearGradient id="paint0_linear" x1="75" y1="0" x2="75" y2="150" gradientUnits="userSpaceOnUse"><stop stop-color="#534BB1"/><stop offset="1" stop-color="#551BF9"/></linearGradient></defs></svg>
