<svg width="1024" height="1024" viewBox="0 0 1024 1024" fill="none" xmlns="http://www.w3.org/2000/svg"><rect width="1024" height="1024" fill="#3B99FC"/><path d="M693 370.5C690.106 369.633 687.122 369.192 684.125 369.192C681.128 369.192 678.144 369.633 675.25 370.5H595.25C595.25 344.5 618.75 323 648 323H731.25C734.332 323 737.25 320.082 737.25 317V256.75C737.25 253.668 734.332 250.75 731.25 250.75H648C577.5 250.75 520.25 307 520.25 376.5V432H440.25C437.168 432 434.25 434.918 434.25 438V498.25C434.25 501.332 437.168 504.25 440.25 504.25H520.25V767.25C520.25 770.332 523.168 773.25 526.25 773.25H586.5C589.582 773.25 592.5 770.332 592.5 767.25V504.25H675.25C687.25 504.25 699.25 499.25 705.25 488.25L733.25 446.25C743.25 430.25 724.25 410.25 707.25 421.25L693 370.5Z" fill="white"/></svg>
